<svg width="" height="" viewBox="0 0 12 12" fill="none" xmlns="http://www.w3.org/2000/svg">
<circle cx="6" cy="6" r="6" fill="#226F54"/>
<path d="M5.16092 7.84886L3.71112 6.19313C3.633 6.10392 3.52704 6.05379 3.41656 6.05379C3.30608 6.05379 3.20013 6.10392 3.12201 6.19313C3.04389 6.28235 3 6.40336 3 6.52953C3 6.592 3.01077 6.65386 3.03171 6.71158C3.05264 6.7693 3.08333 6.82175 3.12201 6.86592L4.86845 8.86043C5.0314 9.04652 5.29462 9.04652 5.45757 8.86043L9.87799 3.81213C9.95611 3.72291 10 3.60191 10 3.47573C10 3.34956 9.95611 3.22856 9.87799 3.13934C9.79987 3.05012 9.69392 3 9.58344 3C9.47296 3 9.367 3.05012 9.28888 3.13934L5.16092 7.84886Z" fill="#FAFAFA"/>
</svg>
