<svg width="27" height="24" viewBox="0 0 27 24" fill="none" xmlns="http://www.w3.org/2000/svg">
<path d="M27 4.66667H11.7M11.7 4.66667C11.7 3.69421 11.3207 2.76158 10.6456 2.07394C9.97045 1.38631 9.05478 1 8.1 1C7.14522 1 6.22955 1.38631 5.55442 2.07394C4.87928 2.76158 4.5 3.69421 4.5 4.66667M11.7 4.66667C11.7 5.63913 11.3207 6.57176 10.6456 7.25939C9.97045 7.94703 9.05478 8.33333 8.1 8.33333C7.14522 8.33333 6.22955 7.94703 5.55442 7.25939C4.87928 6.57176 4.5 5.63913 4.5 4.66667M4.5 4.66667H0M27 19.3333H22.5M22.5 19.3333C22.5 18.3609 22.1207 17.4282 21.4456 16.7406C20.7705 16.053 19.8548 15.6667 18.9 15.6667C17.9452 15.6667 17.0295 16.053 16.3544 16.7406C15.6793 17.4282 15.3 18.3609 15.3 19.3333M22.5 19.3333C22.5 20.3058 22.1207 21.2384 21.4456 21.9261C20.7705 22.6137 19.8548 23 18.9 23C17.9452 23 17.0295 22.6137 16.3544 21.9261C15.6793 21.2384 15.3 20.3058 15.3 19.3333M15.3 19.3333H0" stroke="#FAFAFA"/>
</svg>
