<svg width="22" height="22" viewBox="0 0 22 22"
  xmlns="http://www.w3.org/2000/svg">
  <path d="M19.9898 12.5104C20.194 12.5104 20.3898 12.5915 20.5342 12.736C20.6785 12.8804 20.7596 13.0762 20.7596 13.2804V19.7419C20.7893 20.6351 20.6815 21.2214 20.2824 21.5899C19.9107 21.932 19.3718 22.0299 18.6735 21.9925H3.45705C2.74885 21.9573 2.199 21.6702 1.94387 21.0905C1.77452 20.7088 1.69534 20.2578 1.69534 19.7397V13.2793C1.69534 13.0751 1.77644 12.8793 1.92081 12.7349C2.06517 12.5904 2.26097 12.5093 2.46513 12.5093C2.66929 12.5093 2.86508 12.5904 3.00945 12.7349C3.15381 12.8793 3.23491 13.0751 3.23491 13.2793V19.7397C3.23491 19.9949 3.2635 20.2017 3.31189 20.3579L3.35148 20.4657L3.34818 20.4547C3.34928 20.4404 3.38117 20.4459 3.49334 20.4525H18.7131C18.9825 20.4679 19.1541 20.4525 19.2146 20.4514L19.2189 20.4503C19.2047 20.392 19.2321 20.1533 19.2189 19.7661V13.2793C19.2189 13.1781 19.2389 13.0779 19.2777 12.9844C19.3164 12.8909 19.3732 12.806 19.4448 12.7345C19.5164 12.6629 19.6014 12.6063 19.6949 12.5676C19.7884 12.529 19.8887 12.5092 19.9898 12.5093V12.5104ZM11.4738 0C11.7641 0 12.0237 0.114401 12.2678 0.326703L21.7526 9.27969C21.8274 9.34883 21.8878 9.43213 21.9302 9.52476C21.9726 9.61739 21.9961 9.71752 21.9996 9.81934C22.003 9.92116 21.9862 10.0226 21.9501 10.1179C21.914 10.2132 21.8594 10.3004 21.7894 10.3744C21.7195 10.4484 21.6355 10.5078 21.5424 10.5491C21.4493 10.5904 21.3489 10.6128 21.2471 10.615C21.1453 10.6173 21.044 10.5993 20.9492 10.5621C20.8544 10.5249 20.7679 10.4693 20.6947 10.3984L11.4386 1.65992L1.27306 10.4215C1.11848 10.555 0.917227 10.6216 0.713573 10.6066C0.509918 10.5916 0.320544 10.4964 0.187111 10.3417C0.0536785 10.1871 -0.0128835 9.98582 0.00206837 9.7821C0.0170202 9.57839 0.112261 9.38896 0.266839 9.25549L10.6545 0.304703L10.7491 0.234302C10.9844 0.0869008 11.2198 0.00110001 11.4749 0.00110001L11.4738 0Z" />
</svg>
