<svg width="21" height="23" viewBox="0 0 21 23" fill="none" xmlns="http://www.w3.org/2000/svg">
<path d="M12.3261 20.9535C12.1405 21.2718 11.8742 21.536 11.5537 21.7197C11.2332 21.9033 10.8698 22 10.5 22C10.1302 22 9.7668 21.9033 9.44632 21.7197C9.12583 21.536 8.85947 21.2718 8.67389 20.9535M16.8333 7.30112C16.8333 5.62996 16.1661 4.02724 14.9783 2.84555C13.7906 1.66387 12.1797 1 10.5 1C8.8203 1 7.20939 1.66387 6.02166 2.84555C4.83393 4.02724 4.16667 5.62996 4.16667 7.30112C4.16667 14.6524 1 16.7528 1 16.7528H20C20 16.7528 16.8333 14.6524 16.8333 7.30112Z" stroke="#FAFAFA" stroke-width="1.5" stroke-linecap="round" stroke-linejoin="round"/>
</svg>
