<svg width="22" height="22" viewBox="0 0 22 22" fill="none" xmlns="http://www.w3.org/2000/svg">
<path fill-rule="evenodd" clip-rule="evenodd" d="M18.1713 9.83563C18.1713 14.4393 14.4393 18.1713 9.83563 18.1713C5.23199 18.1713 1.5 14.4393 1.5 9.83563C1.5 5.23199 5.23199 1.5 9.83563 1.5C14.4393 1.5 18.1713 5.23199 18.1713 9.83563ZM16.187 17.3459C14.4734 18.7965 12.2567 19.6713 9.83563 19.6713C4.40356 19.6713 0 15.2677 0 9.83563C0 4.40356 4.40356 0 9.83563 0C15.2677 0 19.6713 4.40356 19.6713 9.83563C19.6713 12.2565 18.7966 14.4731 17.3461 16.1867L21.7601 20.6007C22.0802 20.9208 22.0802 21.4398 21.7601 21.7598C21.44 22.0799 20.9211 22.0799 20.601 21.7598L16.187 17.3459Z" fill="#263245"/>
</svg>
