<svg width="22" height="22" viewBox="0 0 22 22" fill="none" xmlns="http://www.w3.org/2000/svg">
<path d="M20.9001 6.6001V15.4001C20.9001 16.8588 20.3206 18.2577 19.2892 19.2892C18.2577 20.3206 16.8588 20.9001 15.4001 20.9001H6.6001C5.14141 20.9001 3.74246 20.3206 2.71101 19.2892C1.67956 18.2577 1.1001 16.8588 1.1001 15.4001V6.6001C1.1001 5.14141 1.67956 3.74246 2.71101 2.71101C3.74246 1.67956 5.14141 1.1001 6.6001 1.1001H15.4001C16.8588 1.1001 18.2577 1.67956 19.2892 2.71101C20.3206 3.74246 20.9001 5.14141 20.9001 6.6001Z" stroke="#FAFAFA" stroke-width="1.5" stroke-linecap="round" stroke-linejoin="round"/>
<path d="M8.8 10.9999C8.14732 10.9999 7.5093 11.1934 6.96662 11.5561C6.42394 11.9187 6.00097 12.4341 5.7512 13.037C5.50143 13.64 5.43608 14.3036 5.56341 14.9437C5.69074 15.5838 6.00504 16.1718 6.46655 16.6334C6.92806 17.0949 7.51607 17.4092 8.1562 17.5365C8.79634 17.6638 9.45986 17.5985 10.0629 17.3487C10.6659 17.0989 11.1812 16.676 11.5439 16.1333C11.9065 15.5906 12.1 14.9526 12.1 14.2999V4.3999C12.4663 5.4999 13.86 7.6999 16.5 7.6999" stroke="#FAFAFA" stroke-width="1.5" stroke-linecap="round" stroke-linejoin="round"/>
</svg>
