<svg width="" height="" viewBox="0 0 12 12" fill="none" xmlns="http://www.w3.org/2000/svg">
<circle cx="6" cy="6" r="6" fill="#F7981E"/>
<path d="M5.9876 7.67778C5.8436 7.67778 5.72992 7.63333 5.64655 7.54444C5.57076 7.44815 5.53287 7.32222 5.53287 7.16667C5.53287 6.93704 5.55939 6.72222 5.61244 6.52222C5.67307 6.31482 5.76781 6.10741 5.89665 5.9C6.02549 5.69259 6.19602 5.47407 6.40823 5.24444C6.56738 5.06667 6.69243 4.91111 6.78338 4.77778C6.88191 4.63704 6.95012 4.5037 6.98801 4.37778C7.03348 4.25185 7.05622 4.12222 7.05622 3.98889C7.05622 3.74444 6.96527 3.55185 6.78338 3.41111C6.60149 3.27037 6.34381 3.2 6.01033 3.2C5.70718 3.2 5.43055 3.24074 5.18045 3.32222C4.93792 3.3963 4.69161 3.5037 4.4415 3.64444C4.27477 3.74074 4.12319 3.78519 3.98677 3.77778C3.85793 3.76296 3.75183 3.71481 3.66846 3.63333C3.58509 3.55185 3.53204 3.45185 3.5093 3.33333C3.48656 3.21482 3.50551 3.09259 3.56614 2.96667C3.62677 2.84074 3.73667 2.72593 3.89582 2.62222C4.20656 2.42222 4.56277 2.27037 4.96445 2.16667C5.36613 2.05556 5.74507 2 6.10128 2C6.57875 2 6.99559 2.07778 7.3518 2.23333C7.71559 2.38889 7.996 2.6037 8.19305 2.87778C8.39769 3.15185 8.5 3.47407 8.5 3.84444C8.5 4.07407 8.4659 4.29259 8.39769 4.5C8.32947 4.7 8.21958 4.9037 8.068 5.11111C7.91643 5.31111 7.70801 5.52963 7.44274 5.76667C7.2078 5.97407 7.01833 6.16296 6.87433 6.33333C6.73791 6.5037 6.63559 6.66667 6.56738 6.82222C6.50675 6.97778 6.46507 7.14444 6.44233 7.32222C6.43475 7.42593 6.38928 7.51111 6.30591 7.57778C6.23012 7.64444 6.12402 7.67778 5.9876 7.67778ZM5.96486 10C5.70718 10 5.49876 9.92222 5.3396 9.76667C5.18803 9.61111 5.11224 9.41111 5.11224 9.16667C5.11224 8.92963 5.18803 8.73704 5.3396 8.58889C5.49876 8.43333 5.70718 8.35556 5.96486 8.35556C6.23012 8.35556 6.43475 8.43333 6.57875 8.58889C6.73033 8.73704 6.80612 8.92963 6.80612 9.16667C6.80612 9.41111 6.73033 9.61111 6.57875 9.76667C6.43475 9.92222 6.23012 10 5.96486 10Z" fill="#FAFAFA"/>
</svg>
