<svg width="19" height="18" viewBox="0 0 19 18" fill="none" xmlns="http://www.w3.org/2000/svg">
<path d="M8.38684 17.6445L0.335474 9.82274C0.213483 9.70423 0.12687 9.57584 0.0756338 9.43758C0.0252111 9.29932 0 9.15118 0 8.99316C0 8.83515 0.0252111 8.68701 0.0756338 8.54875C0.12687 8.41048 0.213483 8.2821 0.335474 8.16359L8.38684 0.341858C8.61049 0.124588 8.88984 0.0108179 9.22491 0.000546976C9.56079 -0.00893391 9.85072 0.104836 10.0947 0.341858C10.3387 0.559129 10.466 0.830519 10.4765 1.15603C10.4863 1.48233 10.3692 1.76399 10.1252 2.00101L4.14767 7.80805H17.7801C18.1257 7.80805 18.4157 7.92143 18.6499 8.14818C18.8833 8.37572 19 8.65738 19 8.99316C19 9.32894 18.8833 9.61021 18.6499 9.83696C18.4157 10.0645 18.1257 10.1783 17.7801 10.1783H4.14767L10.1252 15.9853C10.3488 16.2026 10.466 16.4791 10.4765 16.8149C10.4863 17.1507 10.3692 17.4272 10.1252 17.6445C9.90155 17.8815 9.61691 18 9.27127 18C8.92563 18 8.63082 17.8815 8.38684 17.6445Z" fill="#FAFAFA"/>
</svg>
