<svg width="12" height="15" viewBox="0 0 12 15" fill="none" xmlns="http://www.w3.org/2000/svg">
<path d="M5.66667 7.49984C6.05625 7.49984 6.38987 7.361 6.66754 7.08334C6.94474 6.80614 7.08333 6.47275 7.08333 6.08317C7.08333 5.69359 6.94474 5.35996 6.66754 5.0823C6.38987 4.8051 6.05625 4.6665 5.66667 4.6665C5.27708 4.6665 4.94369 4.8051 4.6665 5.0823C4.38883 5.35996 4.25 5.69359 4.25 6.08317C4.25 6.47275 4.38883 6.80614 4.6665 7.08334C4.94369 7.361 5.27708 7.49984 5.66667 7.49984ZM5.66667 14.5832C3.76597 12.9658 2.34647 11.4634 1.40817 10.076C0.469389 8.68913 0 7.40539 0 6.22484C0 4.454 0.569736 3.04324 1.70921 1.99255C2.84821 0.941851 4.16736 0.416504 5.66667 0.416504C7.16597 0.416504 8.48512 0.941851 9.62412 1.99255C10.7636 3.04324 11.3333 4.454 11.3333 6.22484C11.3333 7.40539 10.8642 8.68913 9.92587 10.076C8.9871 11.4634 7.56736 12.9658 5.66667 14.5832Z" fill="#E37E7E"/>
</svg>
