<svg width="21" height="19" viewBox="0 0 21 19" fill="none" xmlns="http://www.w3.org/2000/svg">
<path d="M21 3.83333H9.1M9.1 3.83333C9.1 3.08189 8.805 2.36122 8.2799 1.82986C7.7548 1.29851 7.04261 1 6.3 1C5.55739 1 4.8452 1.29851 4.3201 1.82986C3.795 2.36122 3.5 3.08189 3.5 3.83333M9.1 3.83333C9.1 4.58478 8.805 5.30545 8.2799 5.8368C7.7548 6.36816 7.04261 6.66667 6.3 6.66667C5.55739 6.66667 4.8452 6.36816 4.3201 5.8368C3.795 5.30545 3.5 4.58478 3.5 3.83333M3.5 3.83333H0M21 15.1667H17.5M17.5 15.1667C17.5 14.4152 17.205 13.6946 16.6799 13.1632C16.1548 12.6318 15.4426 12.3333 14.7 12.3333C13.9574 12.3333 13.2452 12.6318 12.7201 13.1632C12.195 13.6946 11.9 14.4152 11.9 15.1667M17.5 15.1667C17.5 15.9181 17.205 16.6388 16.6799 17.1701C16.1548 17.7015 15.4426 18 14.7 18C13.9574 18 13.2452 17.7015 12.7201 17.1701C12.195 16.6388 11.9 15.9181 11.9 15.1667M11.9 15.1667H0" stroke="#FAFAFA"/>
</svg>
